<svg width="1362" height="4173" viewBox="0 0 1362 4173" fill="none" xmlns="http://www.w3.org/2000/svg">
<path d="M150.964 0.5C37.7977 53 -120.636 184.1 150.964 288.5C490.464 419 1436.46 347 1216.46 504.5C996.464 662 -274.036 596.5 82.4644 869.5C438.964 1142.5 1563.96 1155.5 1284.46 1322C1004.96 1488.5 -34.5356 1552.5 95.4644 1781C225.464 2009.5 1242.46 2047.5 1246.46 2137.5C1242.46 2227.5 225.464 2265.5 95.4644 2494C-34.5356 2722.5 1004.96 2786.5 1284.46 2953C1563.96 3119.5 438.964 3132.5 82.4644 3405.5C-274.036 3678.5 996.464 3613 1216.46 3770.5C1436.46 3928 490.464 3856 150.964 3986.5C-120.636 4090.9 37.7977 4222 150.964 4274.5M166.964 0.5C53.7977 53 -104.636 184.1 166.964 288.5C506.464 419 1452.46 347 1232.46 504.5C1012.46 662 -258.036 596.5 98.4644 869.5C454.964 1142.5 1579.96 1155.5 1300.46 1322C1020.96 1488.5 -18.5356 1552.5 111.464 1781C241.464 2009.5 1258.46 2047.5 1262.46 2137.5C1258.46 2227.5 241.464 2265.5 111.464 2494C-18.5356 2722.5 1020.96 2786.5 1300.46 2953C1579.96 3119.5 454.964 3132.5 98.4644 3405.5C-258.036 3678.5 1012.46 3613 1232.46 3770.5C1452.46 3928 506.464 3856 166.964 3986.5C-104.636 4090.9 53.7977 4222 166.964 4274.5M182.964 0.5C69.7977 53 -88.6356 184.1 182.964 288.5C522.464 419 1468.46 347 1248.46 504.5C1028.46 662 -242.036 596.5 114.464 869.5C470.964 1142.5 1595.96 1155.5 1316.46 1322C1036.96 1488.5 -2.53558 1552.5 127.464 1781C257.464 2009.5 1274.46 2047.5 1278.46 2137.5C1274.46 2227.5 257.464 2265.5 127.464 2494C-2.53558 2722.5 1036.96 2786.5 1316.46 2953C1595.96 3119.5 470.964 3132.5 114.464 3405.5C-242.036 3678.5 1028.46 3613 1248.46 3770.5C1468.46 3928 522.464 3856 182.964 3986.5C-88.6356 4090.9 69.7977 4222 182.964 4274.5" stroke="url(#paint0_linear_1063_3098)" stroke-opacity="0.7"/>
<defs>
<linearGradient id="paint0_linear_1063_3098" x1="1.00001" y1="1556.5" x2="1361" y2="1554" gradientUnits="userSpaceOnUse">
<stop stop-color="#FA71D4"/>
<stop offset="1" stop-color="#7197FA"/>
</linearGradient>
</defs>
</svg>
