<svg width="152" height="172" viewBox="0 0 152 172" fill="none" xmlns="http://www.w3.org/2000/svg">
<path d="M151.661 0L137.844 154.782L75.7376 172L13.8021 154.806L0 0H151.661Z" fill="#264DE4"/>
<path d="M126.015 144.926L137.822 12.6577H75.8301V158.839L126.015 144.926Z" fill="#2965F1"/>
<path d="M31.6409 70.0737L33.3426 89.0599H75.8304V70.0737H31.6409Z" fill="#EBEBEB"/>
<path d="M75.8307 31.6431H75.7651H28.2219L29.9479 50.6296H75.8307V31.6431Z" fill="#EBEBEB"/>
<path d="M75.8299 139.137V119.383L75.7467 119.405L54.6015 113.696L53.2497 98.5532H42.9748H34.1904L36.8504 128.365L75.7425 139.161L75.8299 139.137Z" fill="#EBEBEB"/>
<path d="M99.1452 89.0581L96.9414 113.682L75.7656 119.397V139.15L114.689 128.363L114.974 125.155L119.436 75.1703L119.899 70.0719L123.327 31.6431H75.7656V50.6296H102.519L100.792 70.0719H75.7656V89.0581H99.1452Z" fill="white"/>
</svg>
