<svg width="109" height="164" viewBox="0 0 109 164" fill="none" xmlns="http://www.w3.org/2000/svg">
<g id="Figma svg">
<path id="Vector" d="M54.5 81.7499C54.5 66.8536 66.5759 54.7773 81.4726 54.7773C96.3689 54.7773 108.445 66.8536 108.445 81.7499C108.445 96.6466 96.3689 108.723 81.4726 108.723C66.5759 108.723 54.5 96.6466 54.5 81.7499Z" fill="#1ABCFE"/>
<path id="Vector_2" d="M0.554932 135.695C0.554932 120.799 12.6309 108.723 27.5275 108.723H54.5001V135.695C54.5001 150.592 42.4242 162.668 27.5275 162.668C12.6309 162.668 0.554932 150.592 0.554932 135.695Z" fill="#0ACF83"/>
<path id="Vector_3" d="M54.5 0.83252V54.7775H81.4726C96.3692 54.7775 108.445 42.7016 108.445 27.8051C108.445 12.9086 96.3692 0.83252 81.4726 0.83252H54.5Z" fill="#FF7262"/>
<path id="Vector_4" d="M0.554932 27.8051C0.554932 42.7016 12.6309 54.7775 27.5275 54.7775H54.5001V0.83252H27.5275C12.6309 0.83252 0.554932 12.9085 0.554932 27.8051Z" fill="#F24E1E"/>
<path id="Vector_5" d="M0.554932 81.7499C0.554932 96.6466 12.6309 108.723 27.5275 108.723H54.5001V54.7773H27.5275C12.6309 54.7773 0.554932 66.8536 0.554932 81.7499Z" fill="#A259FF"/>
</g>
</svg>
